<svg height="512pt" viewBox="0 0 512 512" width="512pt" xmlns="http://www.w3.org/2000/svg"><path fill="black" d="m492 0h-472c-11.046875 0-20 8.953125-20 20v472c0 11.046875 8.953125 20 20 20h472c11.046875 0 20-8.953125 20-20v-472c0-11.046875-8.953125-20-20-20zm-20 40v117.332031h-432v-117.332031zm-432 432v-274.667969h432v274.667969zm33.667969-373.332031c0-13.808594 11.191406-25 25-25 13.804687 0 25 11.191406 25 25 0 13.804687-11.195313 25-25 25-13.808594 0-25-11.195313-25-25zm78.664062 0c0-13.808594 11.195313-25 25-25 13.808594 0 25 11.191406 25 25 0 13.804687-11.191406 25-25 25-13.804687 0-25-11.195313-25-25zm25 137.332031h-78.664062c-11.046875 0-20 8.953125-20 20v157.332031c0 11.046875 8.953125 20 20 20s20-8.953125 20-20v-58.664062h38.667969v58.664062c0 11.046875 8.953124 20 20 20 11.042968 0 20-8.953125 20-20v-157.332031c-.003907-11.046875-8.957032-20-20.003907-20zm-58.664062 78.667969v-38.667969h38.667969v38.667969zm216-78.667969h-78.667969c-11.046875 0-20 8.953125-20 20v157.332031c0 11.046875 8.953125 20 20 20s20-8.953125 20-20v-58.664062h58.667969c11.046875 0 20-8.953125 20-20v-78.667969c0-11.046875-8.957031-20-20-20zm-20 78.667969h-38.667969v-38.667969h38.667969zm118.664062-58.667969v157.332031c0 11.046875-8.953125 20-20 20s-20-8.953125-20-20v-157.332031c0-11.046875 8.953125-20 20-20s20 8.953125 20 20zm0 0"/></svg>